<svg xmlns="http://www.w3.org/2000/svg" xmlns:xlink="http://www.w3.org/1999/xlink" version="1.1" width="256" height="256" viewBox="0 0 256 256" xml:space="preserve">

<defs>
</defs>
<g style="stroke: none; stroke-width: 0; stroke-dasharray: none; stroke-linecap: butt; stroke-linejoin: miter; stroke-miterlimit: 10; fill: none; fill-rule: nonzero; opacity: 1;" transform="translate(1.4065934065934016 1.4065934065934016) scale(2.81 2.81)" >
	<path d="M 79.764 90 H 10.236 C 4.583 90 0 85.417 0 79.764 V 10.236 C 0 4.583 4.583 0 10.236 0 h 69.527 C 85.417 0 90 4.583 90 10.236 v 69.527 C 90 85.417 85.417 90 79.764 90 z" style="stroke: none; stroke-width: 1; stroke-dasharray: none; stroke-linecap: butt; stroke-linejoin: miter; stroke-miterlimit: 10; fill: rgb(23,120,172); fill-rule: nonzero; opacity: 1;" transform=" matrix(1 0 0 1 0 0) " stroke-linecap="round" />
	<path d="M 61.283 12.871 c -10.329 0 -18.703 8.373 -18.703 18.702 h 0 l -11.622 17.03 c -0.315 -0.021 -0.632 -0.032 -0.952 -0.032 c -3.05 0 -5.877 0.957 -8.197 2.586 L 0 41.944 v 16.884 l 15.955 6.578 c 1.205 6.667 7.037 11.723 14.051 11.723 c 7.886 0 14.279 -6.393 14.279 -14.279 c 0 -0.263 -0.008 -0.525 -0.022 -0.784 l 0.001 0.001 L 60.853 50.27 c 0.143 0.003 0.286 0.005 0.43 0.005 c 10.329 0 18.702 -8.373 18.702 -18.703 S 71.612 12.871 61.283 12.871 z M 30.006 73.365 c -4.233 0 -7.881 -2.501 -9.548 -6.106 c 2.432 1.001 6.738 3.216 9.222 3.216 c 4.3 0 7.786 -3.486 7.786 -7.786 c 0 -6.565 -6.414 -7.627 -11.224 -9.659 c 1.169 -0.448 2.438 -0.695 3.765 -0.695 c 5.807 0 10.515 4.708 10.515 10.515 C 40.521 68.657 35.814 73.365 30.006 73.365 z M 61.339 43.891 c -6.834 0 -12.374 -5.54 -12.374 -12.374 c 0 -6.834 5.54 -12.374 12.374 -12.374 s 12.374 5.54 12.374 12.374 C 73.713 38.351 68.173 43.891 61.339 43.891 z" style="stroke: none; stroke-width: 1; stroke-dasharray: none; stroke-linecap: butt; stroke-linejoin: miter; stroke-miterlimit: 10; fill: rgb(254,254,254); fill-rule: nonzero; opacity: 1;" transform=" matrix(1 0 0 1 0 0) " stroke-linecap="round" />
	<path d="M 61.339 22.066 c -5.22 0 -9.451 4.231 -9.451 9.451 s 4.231 9.451 9.451 9.451 c 5.22 0 9.451 -4.231 9.451 -9.451 S 66.558 22.066 61.339 22.066 z" style="stroke: none; stroke-width: 1; stroke-dasharray: none; stroke-linecap: butt; stroke-linejoin: miter; stroke-miterlimit: 10; fill: rgb(254,254,254); fill-rule: nonzero; opacity: 1;" transform=" matrix(1 0 0 1 0 0) " stroke-linecap="round" />
</g>
</svg>