<svg width="141" height="48" viewBox="0 0 141 48" fill="none" xmlns="http://www.w3.org/2000/svg">
<path d="M27.6923 8H3.07692C2.26087 8 1.47825 8.32418 0.90121 8.90121C0.324175 9.47825 0 10.2609 0 11.0769V19.6923C0 28.0446 4.04923 33.1108 7.44616 35.8908C11.0939 38.8739 14.7446 39.8908 14.8985 39.9354C15.2168 40.0215 15.5524 40.0215 15.8708 39.9354C16.0246 39.8923 19.6754 38.8739 23.3231 35.8908C26.72 33.1108 30.7692 28.0446 30.7692 19.6923V11.0769C30.7692 10.2609 30.4451 9.47825 29.868 8.90121C29.291 8.32418 28.5084 8 27.6923 8ZM27.0769 19.6923C27.0769 25.1862 25.0631 29.6446 21.0908 32.9462C19.3881 34.3512 17.4584 35.4557 15.3846 36.2123C13.3106 35.4561 11.3809 34.3515 9.67846 32.9462C5.70616 29.6446 3.69231 25.1862 3.69231 19.6923V11.6923H27.0769V19.6923ZM7.92462 24.6908C7.75289 24.519 7.61667 24.3152 7.52373 24.0908C7.43079 23.8664 7.38295 23.6259 7.38295 23.3831C7.38295 23.1402 7.43079 22.8997 7.52373 22.6754C7.61667 22.451 7.75289 22.2471 7.92462 22.0754C8.09635 21.9037 8.30022 21.7674 8.52459 21.6745C8.74897 21.5816 8.98945 21.5337 9.23231 21.5337C9.47517 21.5337 9.71566 21.5816 9.94003 21.6745C10.1644 21.7674 10.3683 21.9037 10.54 22.0754L12.9231 24.4615L20.2323 17.1508C20.5791 16.804 21.0495 16.6091 21.54 16.6091C22.0305 16.6091 22.5009 16.804 22.8477 17.1508C23.1945 17.4976 23.3894 17.968 23.3894 18.4585C23.3894 18.9489 23.1945 19.4193 22.8477 19.7662L14.2323 28.3815C14.0608 28.5537 13.857 28.6902 13.6326 28.7834C13.4082 28.8766 13.1676 28.9245 12.9246 28.9245C12.6816 28.9245 12.4411 28.8766 12.2166 28.7834C11.9922 28.6902 11.7884 28.5537 11.6169 28.3815L7.92462 24.6908Z" fill="#22C55E"/>
<path d="M44.6332 35L36.7612 14.392H42.1372L47.3852 29.112L52.6652 14.392H58.0732L50.2012 35H44.6332ZM61.7472 35.32C60.7872 35.32 59.8912 35.1493 59.0592 34.808C58.2486 34.4667 57.5979 33.944 57.1072 33.24C56.6166 32.5147 56.3712 31.6187 56.3712 30.552C56.3712 28.9947 56.8939 27.7787 57.9392 26.904C59.0059 26.008 60.5952 25.56 62.7072 25.56H66.9312V25.208C66.9312 24.44 66.6752 23.896 66.1632 23.576C65.6512 23.2347 64.6912 23.064 63.2832 23.064C61.5552 23.064 59.8592 23.3307 58.1952 23.864V20.536C58.9419 20.2373 59.8486 19.992 60.9152 19.8C62.0032 19.608 63.1446 19.512 64.3392 19.512C66.6859 19.512 68.5206 19.992 69.8432 20.952C71.1872 21.912 71.8592 23.4373 71.8592 25.528V35H67.3472L67.0912 33.72C66.5366 34.232 65.8219 34.6267 64.9472 34.904C64.0939 35.1813 63.0272 35.32 61.7472 35.32ZM63.3792 32.152C64.1899 32.152 64.8939 32.0133 65.4912 31.736C66.0886 31.4587 66.5686 31.1067 66.9312 30.68V28.536H63.2832C61.7686 28.536 61.0112 29.144 61.0112 30.36C61.0112 30.9147 61.2032 31.352 61.5872 31.672C61.9712 31.992 62.5686 32.152 63.3792 32.152ZM79.5247 35.32C77.7327 35.32 76.3354 34.8187 75.3327 33.816C74.3301 32.792 73.8287 31.3093 73.8287 29.368V19.832H78.9807V29.08C78.9807 29.9333 79.1834 30.5627 79.5887 30.968C80.0154 31.352 80.6447 31.544 81.4767 31.544C82.0954 31.544 82.6821 31.416 83.2367 31.16C83.7914 30.904 84.2501 30.584 84.6127 30.2V19.832H89.7647V35H84.9647L84.8047 33.72C84.1861 34.1893 83.4394 34.5733 82.5647 34.872C81.6901 35.1707 80.6767 35.32 79.5247 35.32ZM97.0595 35.32C95.3955 35.32 94.2008 34.9573 93.4755 34.232C92.7501 33.5067 92.3875 32.344 92.3875 30.744V13.432H97.5395V30.232C97.5395 30.7227 97.6355 31.064 97.8275 31.256C98.0408 31.4267 98.3501 31.512 98.7555 31.512C99.3315 31.512 99.8435 31.4373 100.291 31.288V34.776C99.8008 34.968 99.3101 35.1067 98.8195 35.192C98.3501 35.2773 97.7635 35.32 97.0595 35.32ZM107.019 35.32C105.141 35.32 103.755 34.84 102.859 33.88C101.984 32.92 101.547 31.5973 101.547 29.912V23.736H99.4987V19.832H101.547V16.664L106.699 15.288V19.832H110.379L110.155 23.736H106.699V29.56C106.699 30.2853 106.88 30.7973 107.243 31.096C107.605 31.3733 108.149 31.512 108.875 31.512C109.493 31.512 110.123 31.4053 110.763 31.192V34.68C109.76 35.1067 108.512 35.32 107.019 35.32ZM112.811 35V23.736H110.795V19.832H112.811V18.584C112.811 16.9413 113.281 15.5867 114.219 14.52C115.158 13.4533 116.555 12.92 118.411 12.92C119.179 12.92 119.862 12.984 120.459 13.112C121.057 13.2187 121.622 13.3787 122.155 13.592V17.048C121.835 16.9413 121.526 16.856 121.227 16.792C120.929 16.728 120.598 16.696 120.235 16.696C119.403 16.696 118.817 16.856 118.475 17.176C118.134 17.4747 117.963 17.976 117.963 18.68V19.832H121.707L121.483 23.736H117.963V35H112.811ZM126.386 40.632C125.618 40.632 124.956 40.5893 124.402 40.504C123.868 40.44 123.335 40.3013 122.802 40.088V36.504C123.164 36.632 123.495 36.7173 123.794 36.76C124.114 36.8027 124.434 36.824 124.754 36.824C125.628 36.824 126.279 36.664 126.706 36.344C127.154 36.0453 127.602 35.5013 128.05 34.712L121.234 19.832H126.642L130.642 29.464L134.578 19.832H139.954L134.162 33.752C133.586 35.1387 132.946 36.344 132.242 37.368C131.538 38.4133 130.716 39.2133 129.778 39.768C128.839 40.344 127.708 40.632 126.386 40.632Z" fill="#F8FAFC"/>
</svg>
